<svg xmlns="http://www.w3.org/2000/svg" viewBox="0 0 160 160" width="160" height="160">
  <rect width="160" height="160" fill="#f7f7f7"/>
  <defs>
    <marker id="arrow" viewBox="0 0 8 8" refX="4" refY="4" markerWidth="6" markerHeight="6" orient="auto">
      <path d="M0 0L8 4L0 8z" fill="#888"/>
    </marker>
  </defs>
  <g font-family="Lato, Verdana, Helvetica, sans-serif" font-size="11" text-anchor="middle" fill="#333">
    <rect x="28" y="10" width="104" height="28" rx="3" fill="#fff" stroke="#999"/>
    <text x="80" y="28">data encode</text>
    <path d="M80 38V52" stroke="#888" stroke-width="1.5" marker-end="url(#arrow)"/>

    <rect x="22" y="56" width="116" height="48" rx="3" fill="#fff" stroke="#1772d0" stroke-width="1.5"/>
    <text x="80" y="71" fill="#1772d0">quantum circuit</text>
    <g stroke="#1772d0" stroke-width="1">
      <path d="M32 80H128M32 88H128M32 96H128"/>
    </g>
    <g fill="#1772d0">
      <rect x="48" y="76" width="8" height="8"/>
      <rect x="72" y="84" width="8" height="8"/>
      <rect x="96" y="92" width="8" height="8"/>
      <circle cx="116" cy="80" r="2.5"/>
      <circle cx="116" cy="96" r="2.5"/>
    </g>
    <path d="M116 80V96" stroke="#1772d0" stroke-width="1"/>

    <path d="M80 104V118" stroke="#888" stroke-width="1.5" marker-end="url(#arrow)"/>
    <rect x="28" y="122" width="104" height="28" rx="3" fill="#fff" stroke="#999"/>
    <text x="80" y="140">predict + explain</text>
  </g>
</svg>
